<svg width="30" height="30" viewBox="0 0 30 30" fill="none" xmlns="http://www.w3.org/2000/svg">
<path d="M29.6667 7V1.66667C29.6667 1.31305 29.5262 0.973908 29.2761 0.723859C29.0261 0.473811 28.6869 0.333336 28.3333 0.333336H1.66666C1.31304 0.333336 0.9739 0.473811 0.723852 0.723859C0.473803 0.973908 0.333328 1.31305 0.333328 1.66667V7H29.6667Z" fill="#2EC5CE"/>
<path d="M0.333328 9.66667V28.3333C0.333328 28.687 0.473803 29.0261 0.723852 29.2761C0.9739 29.5262 1.31304 29.6667 1.66666 29.6667H8.33333V9.66667H0.333328Z" fill="#D6B1FF"/>
<path d="M11 29.6667H28.3333C28.687 29.6667 29.0261 29.5262 29.2761 29.2761C29.5262 29.0261 29.6667 28.687 29.6667 28.3333V9.66667H11V29.6667Z" fill="#8C30F5"/>
</svg>
