<svg width="30" height="30" viewBox="0 0 30 30" fill="none" xmlns="http://www.w3.org/2000/svg">
<path d="M5.66666 0.333344H1.66666C1.31304 0.333344 0.9739 0.473818 0.723852 0.723867C0.473803 0.973915 0.333328 1.31305 0.333328 1.66668V28.3333C0.333328 28.687 0.473803 29.0261 0.723852 29.2762C0.9739 29.5262 1.31304 29.6667 1.66666 29.6667H5.66666V0.333344Z" fill="#D6B1FF"/>
<path d="M8.33333 29.6667H21.6667V0.333344H8.33333V29.6667ZM15 24.3333C14.6464 24.3333 14.3072 24.1929 14.0572 23.9428C13.8071 23.6928 13.6667 23.3536 13.6667 23C13.6667 22.6464 13.8071 22.3072 14.0572 22.0572C14.3072 21.8071 14.6464 21.6667 15 21.6667C15.3536 21.6667 15.6928 21.8071 15.9428 22.0572C16.1929 22.3072 16.3333 22.6464 16.3333 23C16.3333 23.3536 16.1929 23.6928 15.9428 23.9428C15.6928 24.1929 15.3536 24.3333 15 24.3333ZM15 5.66668C15.3536 5.66668 15.6928 5.80715 15.9428 6.0572C16.1929 6.30725 16.3333 6.64639 16.3333 7.00001C16.3333 7.35363 16.1929 7.69277 15.9428 7.94282C15.6928 8.19287 15.3536 8.33334 15 8.33334C14.6464 8.33334 14.3072 8.19287 14.0572 7.94282C13.8071 7.69277 13.6667 7.35363 13.6667 7.00001C13.6667 6.64639 13.8071 6.30725 14.0572 6.0572C14.3072 5.80715 14.6464 5.66668 15 5.66668ZM15 13.6667C15.3536 13.6667 15.6928 13.8072 15.9428 14.0572C16.1929 14.3072 16.3333 14.6464 16.3333 15C16.3333 15.3536 16.1929 15.6928 15.9428 15.9428C15.6928 16.1929 15.3536 16.3333 15 16.3333C14.6464 16.3333 14.3072 16.1929 14.0572 15.9428C13.8071 15.6928 13.6667 15.3536 13.6667 15C13.6667 14.6464 13.8071 14.3072 14.0572 14.0572C14.3072 13.8072 14.6464 13.6667 15 13.6667Z" fill="#8C30F5"/>
<path d="M28.3333 0.333344H24.3333V29.6667H28.3333C28.6869 29.6667 29.0261 29.5262 29.2761 29.2762C29.5262 29.0261 29.6667 28.687 29.6667 28.3333V1.66668C29.6667 1.31305 29.5262 0.973915 29.2761 0.723867C29.0261 0.473818 28.6869 0.333344 28.3333 0.333344Z" fill="#2EC5CE"/>
</svg>
